<svg xmlns="http://www.w3.org/2000/svg" viewBox="0 0 800 600">
  <!-- Градиент для неба -->
  <defs>
    <linearGradient id="sky" x1="0%" y1="0%" x2="0%" y2="100%">
      <stop offset="0%" style="stop-color:#87CEEB;stop-opacity:1" />
      <stop offset="100%" style="stop-color:#E0F6FF;stop-opacity:1" />
    </linearGradient>
  </defs>

  <!-- Фон: небо -->
  <rect width="800" height="600" fill="url(#sky)" />

  <!-- Далёкие горы -->
  <path d="M-50 450 L200 200 L450 450" fill="#6B8E9F" stroke="#4A6672" stroke-width="2"/>
  <path d="M300 500 L500 250 L750 500" fill="#5C7A88" stroke="#3A505A" stroke-width="2"/>

  <!-- Основные горы с заснеженными вершинами -->
  <path d="M100 600 L350 150 L600 600" fill="#4B5D6B" />
  <path d="M350 150 L260 300 L440 300 Z" fill="white" /> <!-- Снежная шапка -->

  <!-- Хвойный лес на склонах -->
  <g fill="#2D4F2D">
    <!-- Лес слева -->
    <path d="M150 550 L170 500 L190 550 Z"/>
    <path d="M200 570 L220 520 L240 570 Z"/>
    <!-- Лес справа -->
    <path d="M500 570 L520 520 L540 570 Z"/>
    <path d="M550 550 L570 500 L590 550 Z"/>
  </g>

  <!-- Декор: облака -->
  <g fill="white" opacity="0.8">
    <circle cx="100" cy="100" r="40"/>
    <circle cx="140" cy="100" r="35"/>
    <circle cx="700" cy="150" r="30"/>
    <circle cx="730" cy="150" r="25"/>
  </g>
</svg>